<svg xmlns="http://www.w3.org/2000/svg" viewBox="0 0 256 256" role="img" aria-label="RestartableLaunch icon">
  <defs>
    <linearGradient id="bg" x1="40" y1="24" x2="216" y2="232" gradientUnits="userSpaceOnUse">
      <stop offset="0" stop-color="#1E88E5"/>
      <stop offset="1" stop-color="#12A88A"/>
    </linearGradient>
    <linearGradient id="window" x1="74" y1="78" x2="190" y2="184" gradientUnits="userSpaceOnUse">
      <stop offset="0" stop-color="#FFFFFF"/>
      <stop offset="1" stop-color="#DDF5FF"/>
    </linearGradient>
  </defs>
  <rect x="20" y="20" width="216" height="216" rx="48" fill="url(#bg)"/>
  <path d="M70 92c15-24 42-39 72-35 31 4 56 27 65 57" fill="none" stroke="#FFFFFF" stroke-width="20" stroke-linecap="round"/>
  <path d="M196 72l14 48-50-7z" fill="#FFFFFF"/>
  <rect x="62" y="92" width="132" height="102" rx="16" fill="url(#window)"/>
  <rect x="62" y="92" width="132" height="28" rx="16" fill="#143B57" opacity=".95"/>
  <circle cx="84" cy="106" r="5" fill="#56D364"/>
  <circle cx="102" cy="106" r="5" fill="#FFD166"/>
  <circle cx="120" cy="106" r="5" fill="#EF476F"/>
  <path d="M92 152h74" stroke="#143B57" stroke-width="14" stroke-linecap="round"/>
  <path d="M142 130l28 22-28 22" fill="none" stroke="#143B57" stroke-width="14" stroke-linecap="round" stroke-linejoin="round"/>
  <path d="M179 183c-16 18-41 27-67 21-30-7-52-30-60-59" fill="none" stroke="#FFFFFF" stroke-width="20" stroke-linecap="round"/>
  <path d="M58 184l-12-49 49 9z" fill="#FFFFFF"/>
</svg>
